<svg version="1.2" xmlns="http://www.w3.org/2000/svg" viewBox="0 0 1705 659" width="1705" height="659">
	<style>
		.s0 { fill: #ffffff } 
	</style>
	<path id="Path 0" fill-rule="evenodd" class="s0" d="m420 27h90v90h-90zm1175 0h92v487h-92zm-1360.5 91.14c3.3-0.08 12.07 0.34 19.5 0.92 7.43 0.59 19.35 2.2 26.5 3.58 7.15 1.39 17.95 4.12 24 6.07 6.05 1.95 15.05 5.33 20 7.51 4.95 2.18 13.27 6.48 18.5 9.57 5.23 3.08 13.77 8.85 19 12.81 5.23 3.97 13.2 10.96 17.72 15.55 4.52 4.59 10.73 11.5 13.81 15.35 3.08 3.85 8.12 11.05 11.21 16 3.08 4.95 7.84 13.72 10.56 19.5 2.73 5.78 6.68 15.68 8.78 22 2.1 6.32 4.95 17.12 6.33 24 1.38 6.87 2.99 17.23 3.58 23 0.59 5.77 1.08 17.93 1.07 27 0 9.1-0.71 21.88-1.57 28.5-0.85 6.6-2.73 16.95-4.16 23-1.43 6.05-4.15 15.5-6.04 21-1.9 5.5-5.83 14.95-8.74 21-2.92 6.05-8.46 15.73-12.31 21.5-3.86 5.77-10.36 14.32-14.44 19-4.08 4.68-10.92 11.65-15.19 15.5-4.27 3.85-11.67 9.81-16.44 13.25-4.77 3.43-15.42 9.59-23.67 13.68-8.25 4.09-19.95 9.03-26 10.98-6.05 1.96-13.7 4.24-17 5.09-3.3 0.84-12.52 2.47-20.5 3.63-12.5 1.8-17.67 2.03-37.5 1.6-19.84-0.42-24.68-0.85-35.25-3.11-6.74-1.44-16.86-4.36-22.5-6.48-5.64-2.12-13.62-5.55-17.75-7.63-4.12-2.07-12-6.83-17.5-10.57-5.5-3.73-13.71-10.43-26.5-22.94v188h-92v-533h88v49l7.75-7.77c4.26-4.28 11.8-10.82 16.75-14.54 4.96-3.72 14.83-9.64 22-13.18 7.15-3.54 16.6-7.59 21-9 4.4-1.41 13.4-3.67 20-5.03 6.6-1.35 16.72-2.85 22.5-3.33 5.78-0.48 13.2-0.94 16.5-1.01zm-43.5 83.66c-4.12 1.13-10.65 3.47-14.5 5.2-3.85 1.72-11.28 5.97-16.5 9.43-6.12 4.05-12.34 9.35-17.5 14.89-4.4 4.73-10.35 12.33-13.22 16.89-2.88 4.56-6.88 12.34-8.89 17.29-2.02 4.95-4.68 13.05-5.93 18-1.25 4.95-2.73 13.73-3.3 19.5-0.66 6.67-0.72 15.42-0.17 24 0.48 7.43 1.61 17.1 2.52 21.5 0.9 4.4 2.73 11.26 4.07 15.25 1.33 3.99 4.39 11.19 6.79 16 2.41 4.81 7.07 12.35 10.37 16.75 3.3 4.4 8.87 10.67 12.38 13.93 3.51 3.27 9.98 8.29 14.38 11.18 4.4 2.88 11.15 6.68 15 8.44 3.85 1.77 12.18 4.55 18.5 6.18 9.37 2.43 14.28 3.08 26.5 3.51 11.54 0.4 17.3 0.13 25-1.19 5.5-0.94 13.6-2.85 18-4.25 4.4-1.39 11.15-4.12 15-6.05 3.85-1.94 9.7-5.34 13-7.56 3.3-2.23 9.3-7.23 13.34-11.12 4.03-3.89 9.51-10 12.17-13.57 2.66-3.57 6.92-10.55 9.45-15.5 2.53-4.95 5.9-13.05 7.49-18 1.58-4.95 3.37-11.7 3.96-15 0.6-3.3 1.53-10.73 2.07-16.5 0.66-7.02 0.65-14.64-0.04-23-0.57-6.87-1.72-15.87-2.56-20-0.84-4.12-2.65-10.87-4.03-15-1.37-4.12-4.3-11.1-6.51-15.5-2.21-4.4-6.2-11.15-8.87-15-2.67-3.85-8.36-10.41-12.66-14.58-4.3-4.16-10.74-9.54-14.31-11.94-3.57-2.4-10.55-6.26-15.5-8.58-4.95-2.32-13.73-5.44-19.5-6.92-8.94-2.31-13.03-2.76-27.5-3.07-11.44-0.23-19.29 0.09-24 0.99-3.85 0.73-10.37 2.26-14.5 3.4zm1116.5-83.62c3.3-0.1 12.08 0.3 19.5 0.88 7.42 0.59 19.35 2.2 26.5 3.59 7.15 1.39 18.4 4.3 25 6.47 6.6 2.17 17.17 6.44 23.5 9.49 6.33 3.05 15.33 8.05 20 11.11 4.67 3.06 10.53 7.17 13 9.13 2.47 1.97 7.2 6.06 10.5 9.1 3.3 3.04 9.31 9.14 13.35 13.54 4.04 4.41 10.62 12.96 14.63 19.01 4 6.05 9.19 14.82 11.53 19.5 2.35 4.68 5.83 12.55 7.75 17.5 1.91 4.95 4.56 12.6 5.89 17 1.33 4.4 3.52 13.96 4.88 21.25 1.36 7.29 2.98 20.79 3.6 30 0.74 10.92 0.82 21.1-0.63 41.75l-153.25 0.25c-84.29 0.14-153.26 0.59-153.27 1-0.01 0.41 1.15 4.8 2.57 9.75 1.42 4.95 4.26 12.6 6.31 17 2.05 4.4 6.18 11.55 9.19 15.9 3 4.34 9.07 11.32 13.48 15.5 4.42 4.18 11.4 9.82 15.5 12.53 4.11 2.71 10.62 6.36 14.47 8.11 3.85 1.76 11.28 4.57 16.5 6.25 5.22 1.68 13.78 3.86 19 4.84 7.12 1.33 14.51 1.78 29.5 1.78 17-0.01 21.72-0.36 31.5-2.34 6.33-1.29 14.65-3.36 18.5-4.6 3.85-1.25 10.83-4.08 15.5-6.29 4.67-2.22 11.88-6.25 16-8.95 4.13-2.71 11.21-8.15 15.75-12.08 4.54-3.93 8.47-7.15 8.75-7.15 0.28 0 11.19 12.39 24.25 27.54 13.06 15.14 23.89 28.08 24.06 28.75 0.17 0.66-4.78 6.17-11 12.23-7.04 6.86-15.47 13.8-22.31 18.37-6.05 4.04-15.5 9.52-21 12.18-5.5 2.65-16.08 6.85-23.5 9.33-7.42 2.48-19.35 5.67-26.5 7.09-7.15 1.42-17.5 3.07-23 3.67-6.1 0.66-20.33 0.88-36.5 0.56-21.18-0.42-28.81-0.95-38-2.67-6.33-1.18-16.22-3.29-22-4.7-5.78-1.4-15.45-4.35-21.5-6.56-6.05-2.2-15.95-6.47-22-9.49-6.05-3.02-14.83-7.98-19.5-11.03-4.67-3.04-12.1-8.33-16.5-11.77-4.4-3.43-11.83-10.24-16.52-15.12-4.68-4.88-10.58-11.58-13.11-14.88-2.53-3.3-6.95-9.6-9.83-14-2.88-4.4-7.65-12.95-10.6-19-2.94-6.05-7.13-16.4-9.3-23-2.16-6.6-4.86-16.5-5.99-22-1.13-5.5-2.6-14.27-3.26-19.5-0.66-5.23-1.2-18.05-1.21-28.5-0.01-13.12 0.53-22.4 1.72-30 0.95-6.05 2.8-15.27 4.11-20.5 1.32-5.23 4.04-14.22 6.05-20 2.01-5.78 6.04-15.22 8.94-21 2.91-5.78 7.96-14.55 11.23-19.5 3.26-4.95 8.65-12.37 11.98-16.5 3.33-4.12 9.93-11.21 14.67-15.75 4.74-4.54 12.78-11.32 17.87-15.07 5.09-3.75 11.95-8.42 15.25-10.39 3.3-1.96 9.83-5.48 14.5-7.82 4.67-2.33 12.55-5.8 17.5-7.71 4.95-1.9 14.96-4.99 22.25-6.86 7.29-1.87 18.54-4.07 25-4.88 6.46-0.81 14.22-1.63 17.25-1.81 3.03-0.19 8.2-0.42 11.5-0.53zm-29 78.27c-6.18 1.54-14.2 4.58-21 7.95-6.58 3.27-14.41 8.2-19.5 12.29-4.67 3.76-11.42 10.47-15 14.92-3.58 4.44-8.07 10.96-9.99 14.48-1.93 3.53-4.77 9.34-6.32 12.91-1.55 3.57-3.93 10.77-5.27 16-1.35 5.23-2.45 10.06-2.44 10.75 0.02 0.99 22.8 1.25 110.52 1.25h110.5c-0.71-3.49-1.9-8.55-3.1-13.5-1.19-4.95-3.79-12.82-5.76-17.5-1.97-4.68-5.8-11.87-8.51-16-2.71-4.12-7.89-10.59-11.52-14.36-3.64-3.78-9.08-8.79-12.11-11.14-3.03-2.35-8.87-6.1-13-8.32-4.12-2.22-10.65-5.22-14.5-6.65-3.85-1.44-11.28-3.47-16.5-4.51-5.22-1.05-14.22-2.12-20-2.39-5.78-0.27-14.1-0.08-18.5 0.42-4.4 0.49-12.5 2.02-18 3.4zm-756.5-73.45h92v391h-92zm267.5-0.01l22.62 30.26c12.44 16.64 33.91 45.33 47.71 63.75 13.79 18.43 38.6 51.27 55.11 73 16.52 21.73 30.82 40.4 31.77 41.5 0.95 1.1 32.68 42.39 70.51 91.75 37.83 49.36 68.78 89.98 68.78 90.25 0 0.27-23.29 0.52-103.5 0.58l-100-134.78-23.51 31.6c-12.93 17.38-35.43 47.66-76.49 102.99l-50.75 0.05c-32.95 0.04-50.66-0.29-50.5-0.93 0.14-0.54 34-44.95 75.25-98.68 41.25-53.73 74.96-98.17 74.9-98.76-0.05-0.59-32.24-43.59-71.53-95.57-39.28-51.97-71.8-95.06-72.25-95.75-0.66-0.99 9.68-1.25 101.88-1.26zm196.5 1.01h90v90h-90z"/>
</svg>